<?xml version="1.0" encoding="UTF-8"?>
<!DOCTYPE svg PUBLIC "-//W3C//DTD SVG 1.1//EN" "http://www.w3.org/Graphics/SVG/1.1/DTD/svg11.dtd">
<!-- Creator: CorelDRAW X8 -->
<svg xmlns="http://www.w3.org/2000/svg" xml:space="preserve" width="100px" height="100px" version="1.1" style="shape-rendering:geometricPrecision; text-rendering:geometricPrecision; image-rendering:optimizeQuality; fill-rule:evenodd; clip-rule:evenodd"
viewBox="0 0 59760 59745"
 xmlns:xlink="http://www.w3.org/1999/xlink">
 <defs>
  <style type="text/css">
   <![CDATA[
    .fil1 {fill:#FEFEFE}
    .fil0 {fill:#62B19E}
    .fil2 {fill:#FEFEFE;fill-rule:nonzero}
   ]]>
  </style>
 </defs>
 <g id="Capa_x0020_1">
  <metadata id="CorelCorpID_0Corel-Layer"/>
  <path class="fil0" d="M11787 11088c-5598,1079 -6679,4259 -5809,8347 -5369,3236 -4459,6596 -2143,9982 -3154,3900 -1773,7079 1692,9926 -951,5014 650,8014 5414,8516 900,4848 3781,6976 8290,5809 2606,4922 6966,4501 9982,2030 4331,3285 7664,2468 10039,-1466 5629,1145 8095,-1333 8460,-5753 4752,-584 7128,-2743 5865,-8290 5918,-2906 4026,-6280 2312,-9644 3078,-4224 2242,-7449 -1748,-9869 1559,-5635 -1181,-7940 -5640,-8911 -538,-4712 -3183,-6755 -8234,-5752 -2391,-3981 -5618,-4893 -9813,-2256 -4205,-2727 -7582,-2349 -9982,1692 -5177,-991 -8170,765 -8685,5639z"/>
  <path class="fil0" d="M11107 10383c-5808,1119 -6930,4419 -6027,8660 -5571,3358 -4626,6843 -2223,10357 -3273,4047 -1840,7345 1755,10299 -987,5202 675,8314 5618,8836 933,5030 3923,7238 8601,6027 2704,5107 7228,4670 10357,2106 4494,3408 7952,2561 10416,-1521 5840,1188 8399,-1383 8777,-5969 4931,-606 7397,-2846 6086,-8601 6140,-3015 4178,-6516 2399,-10007 3194,-4383 2326,-7729 -1814,-10240 1617,-5846 -1224,-8237 -5851,-9245 -559,-4889 -3304,-7009 -8544,-5969 -2480,-4129 -5828,-5076 -10181,-2340 -4363,-2830 -7867,-2437 -10357,1755 -5372,-1028 -8477,795 -9012,5852zm-622 -646c-6001,1156 -7160,4565 -6227,8947 -5756,3469 -4779,7070 -2297,10700 -3381,4181 -1901,7589 1813,10641 -1019,5375 698,8590 5804,9128 965,5197 4053,7479 8887,6227 2793,5277 7467,4825 10701,2176 4642,3521 8214,2646 10760,-1571 6034,1227 8678,-1429 9069,-6167 5094,-626 7641,-2940 6287,-8887 6344,-3114 4316,-6732 2479,-10337 3299,-4529 2403,-7986 -1874,-10580 1671,-6040 -1266,-8511 -6046,-9552 -577,-5051 -3413,-7241 -8826,-6166 -2563,-4267 -6022,-5245 -10519,-2418 -4508,-2924 -8128,-2518 -10701,1813 -5550,-1062 -8758,821 -9310,6046z"/>
  <g id="_1537380307968">
   <path class="fil1" d="M27557 39697c-475,-883 -693,-2761 -1151,-4222 -640,-341 -1390,-883 -1312,-1727 78,-844 320,-907 544,-1248 -280,-601 -470,-1039 -288,-1695 182,-656 917,-640 1312,-864 42,-426 142,-991 799,-1311 657,-320 938,-149 1407,-224 518,-986 2399,-1138 2719,160 1250,-186 2324,244 2175,1503 1281,0 1945,1360 960,2303 1016,896 590,2520 -736,2975 -362,1471 -564,2992 -1087,4414 -356,966 -4862,828 -5342,-64zm-352 -4606c-104,-73 -405,-126 -384,0 250,1455 563,3116 1120,4286 321,675 4141,779 4642,-52 730,-1211 712,-2750 987,-4138 20,-99 -213,-164 -288,-96 -352,325 -618,775 -1087,800 -385,20 -734,-288 -1119,-288 -402,0 -480,336 -793,317 -460,-27 -633,-356 -1034,-352 -467,5 -455,395 -1053,355 -668,-45 -676,-611 -991,-832zm-879 -2446c-1123,-1234 -631,-1818 852,-2116 -102,-1191 340,-2161 1984,-1263 287,-1996 2459,-1340 2189,59 1031,-715 2232,-440 1969,1204 1724,-646 1824,2063 691,2028 1186,417 1343,2468 -603,2263 84,-744 -78,-1320 -676,-1499 -105,-31 -314,72 -279,177 291,860 752,1864 -338,1910 -769,32 -561,-870 -690,-1572 -40,-212 -626,-215 -647,0 -52,545 238,1705 -558,1660 -578,-33 -497,-806 -544,-1660 -11,-206 -592,-325 -617,14 -41,555 246,1619 -794,1455 -603,-95 -463,-820 -440,-1778 3,-147 -380,-281 -441,0 -156,722 -152,1284 -1176,1249 -407,-14 -692,-622 -661,-1029 36,-457 878,-989 779,-1102z"/>
   <path class="fil2" d="M9745 20114l0 1973 1364 0c688,0 1032,-345 1032,-1035 0,-625 -334,-938 -1004,-938l-1392 0zm0 2620l0 2391 -679 0 0 -5674 2276 0c303,0 569,69 798,207 229,138 403,330 525,573 122,245 183,518 183,821 0,283 -52,552 -154,809 -103,257 -268,467 -494,630 -226,161 -511,243 -858,243l-1597 0z"/>
   <path id="1" class="fil2" d="M36542 21116l-636 0c-13,-273 -81,-497 -206,-668 -125,-172 -281,-296 -469,-371 -188,-75 -386,-113 -597,-113 -299,0 -568,71 -805,214 -237,144 -355,407 -355,788 0,374 202,608 607,703 670,175 1154,298 1451,369 762,219 1144,730 1144,1532 0,417 -99,754 -299,1009 -197,257 -447,437 -747,543 -301,107 -614,161 -941,161 -649,0 -1152,-164 -1508,-492 -357,-328 -534,-826 -534,-1497l635 0c0,321 69,580 206,780 136,200 312,342 524,426 213,86 438,128 677,128 199,0 399,-26 599,-79 200,-53 371,-150 512,-293 140,-142 211,-337 211,-583 0,-201 -32,-360 -95,-479 -63,-118 -170,-215 -321,-292 -151,-77 -370,-155 -657,-231 -268,-65 -520,-126 -758,-186 -238,-60 -460,-142 -668,-246 -207,-103 -377,-252 -507,-443 -131,-191 -196,-439 -196,-743 0,-306 63,-590 187,-855 125,-264 320,-476 582,-638 264,-161 593,-243 985,-243 537,0 951,99 1241,296 290,197 482,425 576,684 93,260 148,532 162,819z"/>
   <polygon id="2" class="fil2" points="14025,21183 14025,24653 15819,24653 15819,25125 13554,25125 13554,21183 "/>
   <path id="3" class="fil2" d="M16298 23853l0 -2670 482 0 0 2571c0,196 33,370 100,522 67,152 169,271 304,357 135,87 300,130 494,130 185,0 348,-42 488,-126 141,-85 249,-203 324,-355 74,-151 112,-324 112,-518l0 -2581 481 0 0 2647c0,272 -60,516 -179,728 -120,214 -289,380 -509,499 -220,118 -474,178 -760,178 -229,0 -447,-54 -653,-163 -206,-109 -371,-267 -496,-476 -125,-209 -188,-457 -188,-743z"/>
   <path id="4" class="fil2" d="M22413 22340l-442 0c-9,-191 -56,-346 -143,-465 -87,-119 -196,-205 -326,-257 -131,-53 -268,-79 -415,-79 -208,0 -395,49 -559,149 -165,100 -247,282 -247,547 0,260 141,423 422,488 465,122 802,208 1008,257 530,152 795,507 795,1065 0,290 -69,524 -207,701 -138,178 -311,303 -520,377 -209,74 -427,112 -653,112 -451,0 -801,-114 -1048,-342 -248,-228 -372,-574 -372,-1040l441 0c0,223 49,403 144,542 95,139 217,237 364,296 148,59 304,89 471,89 138,0 276,-19 415,-55 140,-37 258,-104 357,-204 97,-99 146,-234 146,-405 0,-140 -22,-250 -66,-333 -44,-82 -118,-149 -223,-202 -105,-54 -257,-108 -457,-161 -186,-45 -361,-88 -526,-129 -165,-42 -320,-99 -464,-171 -144,-72 -262,-175 -353,-308 -91,-133 -136,-305 -136,-516 0,-213 43,-411 130,-594 87,-184 222,-331 405,-444 183,-112 411,-169 684,-169 373,0 661,69 862,206 201,137 335,295 400,475 65,181 103,370 113,570z"/>
   <path id="5" class="fil2" d="M24501 21183l1478 0c228,0 449,67 665,202 214,136 393,341 536,618 143,277 222,613 238,1011 0,349 -52,685 -157,1010 -105,324 -265,589 -480,794 -215,205 -475,307 -782,307l-1498 0 0 -3942zm481 3492l987 0c206,0 382,-76 527,-231 144,-154 252,-356 324,-605 71,-248 107,-509 107,-781 0,-190 -19,-368 -57,-537 -38,-168 -98,-318 -180,-450 -81,-133 -188,-237 -319,-314 -131,-75 -284,-114 -461,-114l-928 0 0 3032z"/>
   <polygon id="6" class="fil2" points="30679,24653 30679,25125 28080,25125 28080,21183 30649,21183 30649,21665 28552,21665 28552,22866 30487,22866 30487,23338 28552,23338 28552,24653 "/>
   <path id="7" class="fil2" d="M37405 23853l0 -2670 481 0 0 2571c0,196 34,370 101,522 67,152 169,271 304,357 135,87 299,130 493,130 185,0 349,-42 489,-126 141,-85 249,-203 323,-355 75,-151 113,-324 113,-518l0 -2581 481 0 0 2647c0,272 -60,516 -179,728 -120,214 -289,380 -509,499 -221,118 -475,178 -760,178 -229,0 -447,-54 -653,-163 -206,-109 -371,-267 -496,-476 -126,-209 -188,-457 -188,-743z"/>
   <path id="8" class="fil2" d="M40783 23184c0,-14 0,-34 -2,-60 -2,-27 -2,-47 -2,-61 0,-321 54,-630 164,-925 111,-297 287,-541 530,-738 242,-196 550,-303 922,-322 200,0 405,37 613,111 208,74 396,208 560,401 165,193 270,454 315,782l-461 0c-53,-274 -167,-478 -341,-611 -173,-133 -380,-200 -618,-200 -29,0 -74,4 -136,12 -61,8 -105,13 -133,14 -185,41 -346,128 -483,263 -138,134 -242,309 -316,528 -74,217 -111,466 -111,746 0,284 29,531 86,740 58,209 135,381 235,514 100,134 212,233 338,297 126,63 261,96 403,99 7,-4 14,-7 19,-9 5,-1 8,-2 10,-2 314,-6 561,-104 740,-292 179,-189 290,-454 335,-794l472 0c-29,291 -109,554 -241,788 -132,235 -306,420 -524,556 -218,136 -466,207 -743,214 -277,0 -516,-52 -719,-157 -203,-106 -368,-251 -497,-436 -130,-186 -227,-401 -294,-646 -67,-244 -107,-515 -121,-812z"/>
   <path id="9" class="fil2" d="M44555 25125l0 -3942 1679 0c200,0 384,42 554,126 168,85 303,208 405,373 101,163 151,359 151,586 0,430 -162,735 -486,916 132,46 229,125 292,239 62,113 101,243 117,388 16,146 23,333 23,563 4,204 17,358 39,463 22,105 74,172 153,199l0 89 -589 0c-37,-132 -59,-335 -63,-611 -5,-276 -14,-473 -24,-589 -11,-116 -59,-226 -144,-329 -86,-103 -232,-154 -437,-154l-1199 0 0 1683 -471 0zm471 -2144l1208 0c134,0 247,-31 338,-92 91,-62 161,-144 207,-246 46,-102 73,-210 79,-325 0,-191 -46,-351 -137,-481 -92,-129 -241,-194 -447,-194l-1248 0 0 1338z"/>
   <polygon id="10" class="fil2" points="50693,24653 50693,25125 48095,25125 48095,21183 50664,21183 50664,21665 48567,21665 48567,22866 50502,22866 50502,23338 48567,23338 48567,24653 "/>
   <path class="fil2" d="M12594 38481l-1019 0 0 -2262 1114 0c143,0 265,25 364,72 99,48 174,113 225,196 52,82 82,175 90,280 0,263 -91,429 -273,496 116,42 203,114 261,218 59,103 87,221 87,354 -10,114 -36,211 -78,293 -41,82 -98,148 -168,199 -71,52 -157,91 -258,116 -100,25 -215,38 -345,38zm-563 -1869l0 491 576 0c97,0 173,-22 227,-66 54,-45 81,-105 81,-180 0,-79 -24,-140 -71,-182 -47,-41 -135,-63 -265,-63l-548 0zm0 1482l602 0c96,0 176,-24 238,-73 61,-48 95,-127 101,-235 0,-111 -34,-189 -101,-233 -68,-44 -145,-66 -233,-66l-607 0 0 607z"/>
   <path id="1" class="fil2" d="M13672 38481l802 -2262 548 0 798 2262 -515 0 -142 -466 -833 0 -161 466 -497 0zm1066 -1752l-285 899 575 0 -283 -899 -7 0z"/>
   <polygon id="2" class="fil2" points="16159,38481 16159,36219 16625,36219 16625,37141 17493,36219 18100,36219 17179,37147 18156,38481 17546,38481 16848,37493 16625,37714 16625,38481 "/>
   <polygon id="3" class="fil2" points="18395,38481 18395,36219 20058,36219 20058,36619 18857,36619 18857,37100 19961,37100 19961,37496 18857,37496 18857,38081 20109,38081 20109,38481 "/>
   <path id="4" class="fil2" d="M20496 38481l0 -2262 1147 0c156,0 287,31 392,91 106,60 185,138 236,234 51,96 77,198 80,308 0,82 -14,160 -40,234 -27,75 -67,139 -120,193 -53,54 -116,95 -190,120 115,37 191,97 228,180 38,83 56,191 56,323l0 94c0,44 -2,79 -6,104 4,100 13,175 26,226 14,51 42,81 84,92l0 63 -522 0c-17,-50 -29,-105 -37,-166 -8,-62 -13,-127 -14,-198 -2,-70 -4,-138 -6,-203 -3,-76 -11,-135 -24,-177 -13,-41 -45,-75 -94,-101 -49,-26 -126,-39 -230,-39l-504 0 0 884 -462 0zm462 -1265l587 0c124,0 211,-27 260,-82 50,-56 74,-133 74,-232 0,-80 -24,-148 -74,-205 -50,-56 -132,-85 -247,-85l-600 0 0 604z"/>
   <polygon id="5" class="fil2" points="23243,38481 23243,37628 22464,36219 23013,36219 23488,37204 23929,36219 24469,36219 23715,37631 23715,38481 "/>
   <path class="fil2" d="M35301 37308c7,-180 35,-341 87,-483 51,-142 121,-262 211,-360 90,-98 198,-173 324,-225 127,-52 267,-79 422,-80 183,0 346,35 488,105 142,71 254,167 337,290 84,123 133,259 148,410l-476 0c-63,-258 -222,-389 -478,-393 -189,0 -334,71 -435,214 -101,142 -153,340 -156,593 4,5 6,11 6,20 3,129 25,249 66,360 41,111 102,201 183,270 82,68 181,102 299,102 282,0 453,-141 515,-424l476 0c-31,160 -86,303 -168,429 -81,124 -190,223 -326,296 -135,72 -295,109 -479,111 -199,0 -378,-43 -535,-128 -158,-85 -283,-215 -374,-391 -92,-175 -139,-392 -141,-650 4,-19 6,-41 6,-66z"/>
   <path id="1" class="fil2" d="M37575 37468l0 -81c0,-243 37,-455 113,-637 76,-182 196,-325 360,-428 163,-104 370,-158 621,-162 139,0 272,22 400,68 128,45 242,116 343,212 101,96 182,222 241,377 59,155 88,337 88,547 0,184 -25,349 -77,495 -51,146 -125,270 -221,373 -96,102 -211,180 -344,232 -134,53 -281,79 -443,79 -217,0 -406,-47 -567,-142 -160,-95 -284,-224 -371,-387 -87,-163 -135,-345 -143,-546zm465 -173c0,245 48,446 145,606 97,159 254,240 471,243 144,0 262,-39 354,-117 93,-77 159,-174 199,-288 41,-115 61,-231 61,-347 0,-203 -40,-392 -120,-564 -81,-172 -249,-260 -506,-263 -93,0 -183,24 -271,71 -89,46 -165,125 -228,234 -62,110 -97,251 -105,425z"/>
   <polygon id="2" class="fil2" points="40116,38481 40116,36219 41726,36219 41726,36619 40591,36619 40591,37128 41584,37128 41584,37528 40591,37528 40591,38481 "/>
   <polygon id="3" class="fil2" points="42038,38481 42038,36219 43648,36219 43648,36619 42513,36619 42513,37128 43506,37128 43506,37528 42513,37528 42513,38481 "/>
   <polygon id="4" class="fil2" points="43960,38481 43960,36219 45624,36219 45624,36619 44422,36619 44422,37100 45526,37100 45526,37496 44422,37496 44422,38081 45674,38081 45674,38481 "/>
   <polygon id="5" class="fil2" points="46061,38481 46061,36219 47724,36219 47724,36619 46523,36619 46523,37100 47627,37100 47627,37496 46523,37496 46523,38081 47775,38081 47775,38481 "/>
  </g>
 </g>
</svg>
